<?xml version="1.0" encoding="utf-8"?>
<!-- Generator: Adobe Illustrator 24.2.3, SVG Export Plug-In . SVG Version: 6.00 Build 0)  -->
<svg version="1.1" id="Layer_1" xmlns="http://www.w3.org/2000/svg" xmlns:xlink="http://www.w3.org/1999/xlink" x="0px" y="0px"
	 viewBox="0 0 254.6 254.4" style="enable-background:new 0 0 254.6 254.4;" xml:space="preserve">
<g>
	<path d="M0.3,254.4V204h9l15.9,33.8L40.9,204h9v50.4h-7.6v-36.7l-14.2,29.9h-5.9L7.9,217.7v36.7H0.3z"/>
	<path d="M63.4,254.4V204H71v50.4H63.4z"/>
	<path d="M96.4,254.4v-44H81.5V204h37.4v6.4H104v44H96.4z"/>
	<path d="M141.1,254.4v-44h-14.9V204h37.4v6.4h-14.9v44H141.1z"/>
	<path d="M174,254.4V204h31.8v6.4h-24.1v14.2h20.9v6.3h-20.9V248h24.1v6.4H174z"/>
	<path d="M218.1,254.4V204h16.2c3.6,0,6.6,0.5,9.1,1.6c2.5,1.1,4.5,2.7,5.9,4.8c1.4,2.1,2.1,4.7,2.1,7.8c0,3.8-1,6.7-3,8.8
		c-2,2.1-4.7,3.5-8.1,4.2l14.3,23.1h-9.2l-12.7-21.8h-7v21.8H218.1z M225.8,226.1h8.4c2.4,0,4.3-0.3,5.7-0.9
		c1.4-0.6,2.4-1.5,2.9-2.7c0.6-1.2,0.8-2.6,0.8-4.2s-0.3-3-0.8-4.2c-0.6-1.2-1.5-2.1-2.9-2.7c-1.4-0.6-3.3-0.9-5.7-0.9h-8.4V226.1z"
		/>
</g>
<g>
	<path d="M0.3,118.4V68h7.6v20.5h24.4V68h7.6v50.4h-7.6V95H7.9v23.5H0.3z"/>
	<path d="M53.5,118.4V68h31.8v6.4H61.1v14.2H82V95H61.1V112h24.1v6.4H53.5z"/>
	<path d="M97.6,118.4V68h7.6v50.4H97.6z"/>
	<path d="M118.8,118.4V68h7.6v44.1H149v6.3H118.8z"/>
</g>
<g>
	<path d="M0.3,186.4V136h17.6c3.6,0,6.6,0.6,9.2,1.7c2.6,1.1,4.6,2.7,6.1,4.9c1.5,2.2,2.2,4.9,2.2,8.1c0,3.2-0.7,5.9-2.2,8.1
		c-1.5,2.2-3.5,3.9-6.2,4.9c-2.6,1.1-5.7,1.6-9.1,1.6h-10v21H0.3z M7.9,158.9h9.9c3.6,0,6.1-0.7,7.6-2.2c1.5-1.5,2.2-3.5,2.2-6
		c0-2.6-0.7-4.6-2.2-6.1c-1.5-1.5-4-2.2-7.6-2.2H7.9V158.9z"/>
	<path d="M46.3,186.4V136h16.2c3.6,0,6.6,0.5,9.1,1.6c2.5,1.1,4.5,2.7,5.9,4.8c1.4,2.1,2.1,4.7,2.1,7.8c0,3.8-1,6.7-3,8.8
		c-2,2.1-4.7,3.5-8.1,4.2l14.3,23.1h-9.2l-12.7-21.8h-7v21.8H46.3z M53.9,158.1h8.4c2.4,0,4.3-0.3,5.7-0.9c1.4-0.6,2.4-1.5,2.9-2.7
		c0.6-1.2,0.8-2.6,0.8-4.2s-0.3-3-0.8-4.2c-0.6-1.2-1.5-2.1-2.9-2.7c-1.4-0.6-3.3-0.9-5.7-0.9h-8.4V158.1z"/>
	<path d="M90.2,186.4l18.5-50.4h8.4l18.5,50.4h-8.1l-4.2-12.2h-20.7l-4.3,12.2H90.2z M104.7,168.1h16.2l-8.1-23L104.7,168.1z"/>
	<path d="M142.3,186.4l16-27.3L144.5,136h8.6l9.7,16.3l9.1-16.3h8.6l-13.6,23.1l16.3,27.3h-8.6l-12.2-20.3L151,186.4H142.3z"/>
	<path d="M193.9,186.4V136h7.6v50.4H193.9z"/>
	<path d="M231.7,187.3c-3.5,0-6.6-0.6-9.4-1.8c-2.8-1.2-5-3-6.7-5.4c-1.6-2.4-2.5-5.3-2.5-8.8h8c0,2.9,1,5.2,3,6.9
		c1.9,1.8,4.5,2.6,7.6,2.6c2.7,0,5-0.7,6.7-2c1.8-1.3,2.6-3.2,2.6-5.5c0-1.4-0.2-2.6-0.7-3.6c-0.5-0.9-1.3-1.8-2.3-2.5
		c-1.1-0.7-2.5-1.4-4.3-2.1c-1.8-0.6-4-1.4-6.6-2.3c-2.9-1-5.2-2.1-7.1-3.4c-1.8-1.3-3.2-2.8-4.1-4.5c-0.9-1.7-1.4-3.6-1.4-5.8
		c0-3.1,0.7-5.7,2.2-7.7c1.5-2.1,3.4-3.7,5.9-4.8s5.3-1.6,8.3-1.6c3.1,0,5.8,0.5,8.3,1.6s4.5,2.7,6,4.8s2.3,4.7,2.3,7.8h-8.1
		c0-2.2-0.8-4.1-2.4-5.5c-1.6-1.5-3.7-2.2-6.4-2.2c-2.3,0-4.2,0.5-5.8,1.7c-1.6,1.2-2.4,3-2.4,5.3c0,1.6,0.5,3,1.4,4
		c0.9,1,2.3,1.9,4.1,2.7c1.8,0.8,4.1,1.6,6.8,2.6c1.8,0.6,3.5,1.2,5.2,2c1.7,0.8,3.2,1.7,4.6,2.8c1.3,1.1,2.4,2.5,3.2,4.1
		c0.8,1.6,1.2,3.6,1.2,6c0,3.1-0.8,5.7-2.3,7.8c-1.6,2.1-3.6,3.8-6.3,4.9C237.8,186.7,234.9,187.3,231.7,187.3z"/>
</g>
<g>
	<path d="M0,50.4V0h7.6l25.3,37.8V0h7.6v50.4h-7.6L7.6,12.6v37.8H0z"/>
	<path d="M50.9,50.4L69.4,0h8.4l18.5,50.4h-8.1l-4.2-12.2H63.2l-4.3,12.2H50.9z M65.4,32h16.2l-8.1-23L65.4,32z"/>
	<path d="M113,50.4v-44H98.1V0h37.4v6.4h-14.9v44H113z"/>
	<path d="M164.8,51.3c-4.5,0-8.2-0.9-11-2.7c-2.8-1.8-4.9-4.2-6.2-7.3c-1.3-3-2-6.3-2-9.8V0h7.6v31.5c0,4.4,1.1,7.7,3.2,9.7
		c2.1,2.1,5,3.1,8.5,3.1c3.6,0,6.4-1,8.5-3.1c2.1-2.1,3.2-5.3,3.2-9.7V0h7.6v31.5c0,3.7-0.6,6.9-1.7,9.4c-1.2,2.5-2.7,4.6-4.6,6.1
		c-1.9,1.5-4,2.6-6.3,3.3C169.3,50.9,167.1,51.3,164.8,51.3z"/>
	<path d="M197.4,50.4V0h16.2c3.6,0,6.6,0.5,9.1,1.6c2.5,1.1,4.5,2.7,5.9,4.8c1.4,2.1,2.1,4.7,2.1,7.8c0,3.8-1,6.7-3,8.8
		c-2,2.1-4.7,3.5-8.1,4.2l14.3,23.1h-9.2L212,28.6h-7v21.8H197.4z M205.1,22.1h8.4c2.4,0,4.3-0.3,5.7-0.9c1.4-0.6,2.4-1.5,2.9-2.7
		c0.6-1.2,0.8-2.6,0.8-4.2c0-1.6-0.3-3-0.8-4.2c-0.6-1.2-1.5-2.1-2.9-2.7c-1.4-0.6-3.3-0.9-5.7-0.9h-8.4V22.1z"/>
</g>
</svg>
